{
  "accessors": [
    {
      "bufferView": 2,
      "componentType": 5126,
      "count": 65533,
      "max": [
        1.0003799200057983,
        0.9981948137283325,
        0.9947165250778198
      ],
      "min": [
        -0.9984769821166992,
        -1.0076041221618652,
        -0.9998292326927185
      ],
      "type": "VEC3"
    },
    {
      "bufferView": 2,
      "byteOffset": 786396,
      "componentType": 5126,
      "count": 65533,
      "max": [
        0.9999473094940186,
        0.999915599822998,
        0.9999528527259827
      ],
      "min": [
        -0.9999958872795105,
        -0.9999814629554749,
        -0.9997983574867249
      ],
      "type": "VEC3"
    },
    {
      "bufferView": 1,
      "componentType": 5126,
      "count": 65533,
      "max": [
        1.0026381015777588,
        0.9706023335456848
      ],
      "min": [
        -0.001304962090216577,
        0.0
      ],
      "type": "VEC2"
    },
    {
      "bufferView": 0,
      "componentType": 5125,
      "count": 68199,
      "type": "SCALAR"
    },
    {
      "bufferView": 2,
      "byteOffset": 1572792,
      "componentType": 5126,
      "count": 65532,
      "max": [
        0.9999224543571472,
        0.9999984502792358,
        1.0000030994415283
      ],
      "min": [
        -0.9999256134033203,
        -0.9801178574562073,
        -1.0
      ],
      "type": "VEC3"
    },
    {
      "bufferView": 2,
      "byteOffset": 2359176,
      "componentType": 5126,
      "count": 65532,
      "max": [
        0.9999575614929199,
        0.9999817609786987,
        0.9998786449432373
      ],
      "min": [
        -0.9999959468841553,
        -0.9999728202819824,
        -0.9999452233314514
      ],
      "type": "VEC3"
    },
    {
      "bufferView": 1,
      "byteOffset": 524264,
      "componentType": 5126,
      "count": 65532,
      "max": [
        1.0026381015777588,
        1.0
      ],
      "min": [
        0.0,
        0.06361383944749832
      ],
      "type": "VEC2"
    },
    {
      "bufferView": 0,
      "byteOffset": 272796,
      "componentType": 5125,
      "count": 65532,
      "type": "SCALAR"
    },
    {
      "bufferView": 2,
      "byteOffset": 3145560,
      "componentType": 5126,
      "count": 29679,
      "max": [
        1.0003799200057983,
        0.9985320568084717,
        1.0000030994415283
      ],
      "min": [
        -0.9999256134033203,
        -0.9875047206878662,
        -0.9992891550064087
      ],
      "type": "VEC3"
    },
    {
      "bufferView": 2,
      "byteOffset": 3501708,
      "componentType": 5126,
      "count": 29679,
      "max": [
        0.9999575614929199,
        0.9996191263198853,
        0.9999552965164185
      ],
      "min": [
        -0.9999576210975647,
        -0.9999712705612183,
        -0.9992053508758545
      ],
      "type": "VEC3"
    },
    {
      "bufferView": 1,
      "byteOffset": 1048520,
      "componentType": 5126,
      "count": 29679,
      "max": [
        1.0026381015777588,
        0.9823530912399292
      ],
      "min": [
        0.0,
        0.06361126154661179
      ],
      "type": "VEC2"
    },
    {
      "bufferView": 0,
      "byteOffset": 534924,
      "componentType": 5125,
      "count": 29679,
      "type": "SCALAR"
    }
  ],
  "asset": {
    "extras": {
      "author": "OblixStudio (https://sketchfab.com/OblixStudio)",
      "license": "CC-BY-4.0 (http://creativecommons.org/licenses/by/4.0/)",
      "source": "https://sketchfab.com/3d-models/low-poly-earth-76221ccef14b4c919aab372067855577",
      "title": "Low Poly Earth"
    },
    "generator": "Sketchfab-15.30.0",
    "version": "2.0"
  },
  "bufferViews": [
    {
      "buffer": 0,
      "byteLength": 653640,
      "name": "floatBufferViews",
      "target": 34963
    },
    {
      "buffer": 0,
      "byteLength": 1285952,
      "byteOffset": 653640,
      "byteStride": 8,
      "name": "floatBufferViews",
      "target": 34962
    },
    {
      "buffer": 0,
      "byteLength": 3857856,
      "byteOffset": 1939592,
      "byteStride": 12,
      "name": "floatBufferViews",
      "target": 34962
    }
  ],
  "buffers": [
    {
      "byteLength": 5797448,
      "uri": "scene.bin"
    }
  ],
  "images": [
    {
      "uri": "textures/Material.002_baseColor.png"
    }
  ],
  "materials": [
    {
      "doubleSided": true,
      "name": "Material.002",
      "pbrMetallicRoughness": {
        "baseColorTexture": {
          "index": 0
        },
        "metallicFactor": 0.0
      }
    }
  ],
  "meshes": [
    {
      "name": "Object_0",
      "primitives": [
        {
          "attributes": {
            "NORMAL": 1,
            "POSITION": 0,
            "TEXCOORD_0": 2
          },
          "indices": 3,
          "material": 0,
          "mode": 4
        }
      ]
    },
    {
      "name": "Object_1",
      "primitives": [
        {
          "attributes": {
            "NORMAL": 5,
            "POSITION": 4,
            "TEXCOORD_0": 6
          },
          "indices": 7,
          "material": 0,
          "mode": 4
        }
      ]
    },
    {
      "name": "Object_2",
      "primitives": [
        {
          "attributes": {
            "NORMAL": 9,
            "POSITION": 8,
            "TEXCOORD_0": 10
          },
          "indices": 11,
          "material": 0,
          "mode": 4
        }
      ]
    }
  ],
  "nodes": [
    {
      "children": [
        1
      ],
      "matrix": [
        1.0,
        0.0,
        0.0,
        0.0,
        0.0,
        2.220446049250313e-16,
        -1.0,
        0.0,
        0.0,
        1.0,
        2.220446049250313e-16,
        0.0,
        0.0,
        0.0,
        0.0,
        1.0
      ],
      "name": "Sketchfab_model"
    },
    {
      "children": [
        2
      ],
      "name": "root"
    },
    {
      "children": [
        3
      ],
      "matrix": [
        1.0,
        0.0,
        0.0,
        0.0,
        0.0,
        2.220446049250313e-16,
        1.0,
        0.0,
        0.0,
        -1.0,
        2.220446049250313e-16,
        0.0,
        0.0,
        0.0,
        0.0,
        1.0
      ],
      "name": "GLTF_SceneRootNode"
    },
    {
      "children": [
        4,
        5,
        6
      ],
      "name": "Earth_0"
    },
    {
      "mesh": 0,
      "name": "Object_4"
    },
    {
      "mesh": 1,
      "name": "Object_5"
    },
    {
      "mesh": 2,
      "name": "Object_6"
    }
  ],
  "samplers": [
    {
      "magFilter": 9729,
      "minFilter": 9987,
      "wrapS": 10497,
      "wrapT": 10497
    }
  ],
  "scene": 0,
  "scenes": [
    {
      "name": "Sketchfab_Scene",
      "nodes": [
        0
      ]
    }
  ],
  "textures": [
    {
      "sampler": 0,
      "source": 0
    }
  ]
}
